# xmcd CD database file
#
# Track frame offsets:
#	150
#	17925
#	34430
#
# Disc length: 693 seconds
#
# Revision: 0
# Processed by: cddbd v1.5PL3 Copyright (c) Steve Scherf et al.
# Submitted via: CDex 1.51
#
DISCID=2202b303
DTITLE=PAMELAH - 記憶
DYEAR=1999
DGENRE=JPop
TTITLE0=記憶
TTITLE1=魅惑の罪
TTITLE2=記憶 (オリジナル･カラオケ)
EXTD=YEAR: 1999
EXTT0=
EXTT1=
EXTT2=
PLAYORDER=
